<svg width="53" height="52" viewBox="0 0 53 52" fill="none" xmlns="http://www.w3.org/2000/svg">
<path d="M26.1263 0C24.596 0 23.3547 1.24125 23.3547 2.77161C23.3547 3.88268 24.016 4.82745 24.9599 5.26924V12.9894H27.293V5.26924C28.2369 4.82745 28.8982 3.88268 28.8982 2.77161C28.8982 1.24125 27.6569 0 26.1263 0Z" fill="#7367F0"/>
<path fill-rule="evenodd" clip-rule="evenodd" d="M12.5165 9.13623C7.28059 9.13623 3.03613 13.3807 3.03613 18.6164V36.4103C3.03613 41.6463 7.28059 45.8907 12.5165 45.8907H38.4327L38.4325 45.8909C38.4341 45.8909 38.4358 45.8908 38.4375 45.8907H38.781C40.8317 45.9795 43.8635 47.605 46.5952 50.3366C46.7282 50.4534 47.4637 51.1708 48.1214 51.8152C48.5276 52.2132 49.2134 51.9256 49.2134 51.357C49.2134 51.1796 49.2134 50.9937 49.2133 50.8158C49.2133 50.482 49.2132 50.1762 49.2134 50.0076L49.217 36.5202C49.2174 36.4836 49.2176 36.447 49.2176 36.4103V18.6164C49.2176 13.3807 44.9731 9.13623 39.7372 9.13623H12.5165Z" fill="#7064E9"/>
<path d="M0 26.2874C0 24.6626 1.31736 23.3452 2.94222 23.3452H3.12949C4.75457 23.3452 6.07172 24.6626 6.07172 26.2874V29.7324C6.07172 31.3573 4.75457 32.6747 3.12949 32.6747H2.94222C1.31736 32.6747 0 31.3573 0 29.7324V26.2874Z" fill="#7367F0"/>
<path d="M46.1819 26.2874C46.1819 24.6626 47.499 23.3452 49.1239 23.3452H49.3114C50.9363 23.3452 52.2536 24.6626 52.2536 26.2874V29.7324C52.2536 31.3573 50.9363 32.6747 49.3114 32.6747H49.1239C47.499 32.6747 46.1819 31.3573 46.1819 29.7324V26.2874Z" fill="#7367F0"/>
<path opacity="0.963581" d="M29.6347 34.2114L22.6169 34.2415C22.6169 34.2415 22.8734 37.5085 26.1212 37.4804C29.5999 37.4503 29.6347 34.2114 29.6347 34.2114Z" fill="white"/>
<path d="M18.4816 26.5167C18.4816 24.2148 16.7901 22.3484 14.7036 22.3484C12.617 22.3484 10.9255 24.2148 10.9255 26.5167C10.9255 28.8189 12.617 30.6853 14.7036 30.6853C16.7901 30.6853 18.4816 28.8189 18.4816 26.5167Z" fill="white"/>
<path d="M41.3256 26.5167C41.3256 24.2148 39.6341 22.3484 37.5475 22.3484C35.461 22.3484 33.7695 24.2148 33.7695 26.5167C33.7695 28.8189 35.461 30.6853 37.5475 30.6853C39.6341 30.6853 41.3256 28.8189 41.3256 26.5167Z" fill="white"/>
</svg>
